<?xml version="1.0" encoding="UTF-8"?>
<svg version="1.1" xmlns="http://www.w3.org/2000/svg" width="2000" height="2000">
<path d="M0 0 C660 0 1320 0 2000 0 C2000 157.08 2000 314.16 2000 476 C1786.16 476 1572.32 476 1352 476 C1352 492.17 1352 508.34 1352 525 C1119.68 525 887.36 525 648 525 C648 508.83 648 492.66 648 476 C434.16 476 220.32 476 0 476 C0 318.92 0 161.84 0 0 Z M16 16 C16 162.19 16 308.38 16 459 C224.56 459 433.12 459 648 459 C648 442.5 648 426 648 409 C880.32 409 1112.64 409 1352 409 C1352 425.5 1352 442 1352 459 C1560.56 459 1769.12 459 1984 459 C1984 312.81 1984 166.62 1984 16 C1334.56 16 685.12 16 16 16 Z " fill="#000000" transform="translate(0,779)"/>
<path d="M0 0 C0.83505027 -0.00367669 1.67010053 -0.00735338 2.53045535 -0.01114148 C5.32693011 -0.02214936 8.12336768 -0.02601721 10.91986084 -0.02983093 C12.92567563 -0.03609769 14.93148927 -0.04274468 16.93730164 -0.04974365 C23.52230016 -0.07075838 30.10729886 -0.08114253 36.69232178 -0.09111023 C38.96086387 -0.09515853 41.22940585 -0.09927547 43.49794769 -0.10346031 C54.15477501 -0.12250503 64.81159542 -0.13673848 75.46843648 -0.14507228 C87.76442777 -0.15484719 100.06023917 -0.18117647 112.35616708 -0.22157317 C121.86461166 -0.25173884 131.37300468 -0.26654153 140.88149619 -0.26985329 C146.55867484 -0.27220293 152.23566113 -0.28115264 157.91278839 -0.30631447 C163.25458554 -0.32960841 168.59606384 -0.33382297 173.93789864 -0.32355309 C175.89500299 -0.32305797 177.85212311 -0.32937127 179.80917931 -0.34310913 C182.48831875 -0.36085898 185.16631763 -0.35370697 187.84545898 -0.34057617 C188.99748633 -0.35703004 188.99748633 -0.35703004 190.17278695 -0.37381631 C196.48573908 -0.29950106 202.81902746 1.28280639 207.39561772 5.87011927 C213.11397313 13.16735737 210.83918885 23.04481177 210.17669678 31.64717102 C209.60503986 39.43803813 209.56338266 47.21210614 209.55169678 55.02217102 C209.54718506 56.27062805 209.54267334 57.51908508 209.5380249 58.80537415 C209.54852213 65.33814779 209.7957133 71.67264166 210.67669678 78.14717102 C211.00669678 76.82717102 211.33669678 75.50717102 211.67669678 74.14717102 C214.64669678 74.14717102 217.61669678 74.14717102 220.67669678 74.14717102 C220.64640381 73.29937073 220.61611084 72.45157043 220.5848999 71.57807922 C220.04159661 56.04273957 219.56295862 40.50454193 219.42669678 24.95967102 C219.39479248 23.1552655 219.39479248 23.1552655 219.36224365 21.31440735 C219.33526967 14.61089018 219.40436606 9.81575207 224.048316 4.60946083 C228.15919271 0.63572303 231.13470572 -0.54898319 236.82711792 -0.64378357 C237.72759857 -0.62849609 238.62807922 -0.61320862 239.55584717 -0.59745789 C240.52258865 -0.60475922 241.48933014 -0.61206055 242.48536682 -0.61958313 C245.6657544 -0.63573267 248.84408392 -0.60863295 252.02435303 -0.57939148 C254.24199929 -0.57835358 256.45964742 -0.57939168 258.67729187 -0.58241272 C263.31840591 -0.58223356 267.95882307 -0.56143275 272.59979248 -0.52519226 C278.54397549 -0.47979117 284.48714211 -0.47873709 290.43145084 -0.49222755 C295.00832631 -0.49891494 299.58497068 -0.48563293 304.16180229 -0.46596909 C306.35341622 -0.45828022 308.54505588 -0.45596239 310.73668098 -0.45914078 C313.80059806 -0.45988381 316.86321892 -0.43459854 319.92694092 -0.40214539 C321.28069824 -0.40957764 321.28069824 -0.40957764 322.6618042 -0.41716003 C328.13875473 -0.32472177 331.36024744 0.45266845 335.67669678 4.14717102 C336.33669678 5.13717102 336.99669678 6.12717102 337.67669678 7.14717102 C338.15880615 6.72564758 338.64091553 6.30412415 339.13763428 5.86982727 C339.7692749 5.32197571 340.40091553 4.77412415 341.05169678 4.20967102 C341.67818115 3.66439758 342.30466553 3.11912415 342.95013428 2.55732727 C345.64501302 0.3563064 347.30564585 0.01979603 350.71118164 0 C351.97704353 -0.01073296 351.97704353 -0.01073296 353.26847839 -0.02168274 C354.66019005 -0.02571609 354.66019005 -0.02571609 356.08001709 -0.02983093 C357.05578201 -0.03640213 358.03154694 -0.04297333 359.03688049 -0.04974365 C362.27619498 -0.06950497 365.51546303 -0.08114586 368.75482178 -0.09111023 C369.85978752 -0.09518576 370.96475327 -0.09926128 372.10320282 -0.10346031 C377.95208043 -0.12433361 383.80093449 -0.13862961 389.64984131 -0.147995 C395.69380651 -0.15905914 401.73740352 -0.19345583 407.78123856 -0.23316669 C412.42580859 -0.25930365 417.07029056 -0.26768428 421.71492767 -0.27127647 C423.94286331 -0.27615034 426.17079482 -0.28778699 428.39865875 -0.30631447 C431.51800243 -0.33064207 434.63638899 -0.3297522 437.75579834 -0.32279968 C439.13536461 -0.34201477 439.13536461 -0.34201477 440.5428009 -0.36161804 C446.09390939 -0.31654501 449.27292503 0.43877562 453.67669678 4.14717102 C458.64985274 9.80627953 458.0832645 15.97592247 457.67669678 23.14717102 C457.07692309 27.20480568 456.1632728 31.14813212 455.17669678 35.12763977 C454.90969971 36.24180771 454.64270264 37.35597565 454.36761475 38.50390625 C451.17426586 51.59172403 447.43870441 64.52644639 443.67669678 77.45967102 C442.9833504 79.86117961 442.2906408 82.26287213 441.59857178 84.66474915 C441.08870728 86.43191788 441.08870728 86.43191788 440.56854248 88.23478699 C439.89702412 90.56311364 439.22627336 92.89166183 438.55633545 95.22044373 C437.00750817 100.5931197 435.43762909 105.95684705 433.80560303 111.30488586 C433.51894775 112.26057968 433.23229248 113.2162735 432.93695068 114.20092773 C432.40786046 115.96243905 431.86802713 117.72077821 431.31488037 119.47488403 C429.24873399 126.41980446 429.91747189 131.71709022 432.53216553 138.49092102 C432.90792725 139.49252258 433.28368896 140.49412415 433.6708374 141.52607727 C434.44307148 143.5457664 435.21887886 145.56409442 435.9989624 147.58076477 C443.13775811 166.67373272 447.05838934 186.83602511 451.20135498 206.74092102 C451.99875848 210.56806245 452.80690168 214.39283097 453.6161499 218.21748352 C454.13305437 220.68089341 454.64935314 223.14443048 455.16497803 225.60810852 C455.52273064 227.30041092 455.52273064 227.30041092 455.88771057 229.02690125 C459.89016391 248.35452214 459.89016391 248.35452214 455.67669678 256.14717102 C452.70627328 259.54656576 449.38363259 261.95834605 444.75254536 262.2813921 C443.65506615 262.28780232 443.65506615 262.28780232 442.53541565 262.29434204 C441.69302338 262.30149734 440.8506311 262.30865265 439.98271179 262.31602478 C439.06164139 262.31871368 438.14057098 262.32140259 437.19158936 262.32417297 C436.21889099 262.33074417 435.24619263 262.33731537 434.24401855 262.34408569 C431.01975427 262.36382178 427.79553661 262.37548277 424.57122803 262.38545227 C422.91889947 262.39156556 422.91889947 262.39156556 421.23319054 262.39780235 C415.40145429 262.41866562 409.56974158 262.43296557 403.73797607 262.44233704 C397.72001882 262.45339461 391.70243201 262.48778662 385.6846056 262.52750874 C381.05282412 262.55368024 376.42113076 262.56202943 371.78928185 262.56561852 C369.57137237 262.57048401 367.35346681 262.58209688 365.13562965 262.60065651 C362.02638212 262.62505586 358.91809122 262.62408102 355.80877686 262.61714172 C354.44235298 262.63635681 354.44235298 262.63635681 353.04832458 262.65596008 C347.132891 262.608002 342.6008935 261.53541886 337.67669678 258.14717102 C335.17669678 255.39717102 335.17669678 255.39717102 333.67669678 253.14717102 C333.31318115 253.6292804 332.94966553 254.11138977 332.57513428 254.60810852 C331.82103271 255.55556946 331.82103271 255.55556946 331.05169678 256.52217102 C330.56443115 257.1486554 330.07716553 257.77513977 329.57513428 258.42060852 C324.80277955 262.76089821 318.70745165 262.42680994 312.64202881 262.3742218 C311.30935219 262.37465988 311.30935219 262.37465988 309.94975281 262.37510681 C307.02790387 262.3737191 304.10631339 262.35818419 301.18450928 262.34248352 C299.15284362 262.33875141 297.12117616 262.33590537 295.08950806 262.33390808 C289.75314325 262.32628726 284.41688804 262.30665206 279.08056641 262.28450012 C273.63085411 262.26400829 268.18112403 262.25489923 262.73138428 262.24482727 C252.04644041 262.22340473 241.36157772 262.18928749 230.67669678 262.14717102 C230.38062027 263.06587982 230.08454376 263.98458862 229.77949524 264.93113708 C228.52241565 268.59709306 226.86264283 271.96087345 225.07904053 275.38935852 C224.72588272 276.07539154 224.37272491 276.76142456 224.00886536 277.46824646 C223.26032308 278.91990939 222.50966466 280.37048287 221.75701904 281.82002258 C220.6369141 283.97839614 219.52441728 286.14055093 218.4130249 288.30342102 C213.3875367 298.04575262 208.11167879 307.62773226 202.67669678 317.14717102 C202.34669678 317.14717102 202.01669678 317.14717102 201.67669678 317.14717102 C202.41686671 304.78063954 204.39291633 292.5620425 206.16815186 280.31221008 C206.58201308 277.44778589 206.99086398 274.58267797 207.39935303 271.71748352 C207.52745865 270.84552338 207.65556427 269.97356323 207.78755188 269.07518005 C208.40652306 264.72422461 208.82325459 260.55645471 208.67669678 256.14717102 C207.28450928 257.35373352 207.28450928 257.35373352 205.86419678 258.58467102 C201.36338274 262.48537652 197.03405 262.29372282 191.30796814 262.28761292 C190.44392516 262.29058404 189.57988218 262.29355516 188.68965608 262.29661632 C185.78322699 262.30531461 182.87683904 262.30681252 179.97039795 262.30830383 C177.89104626 262.31293119 175.81169542 262.31795574 173.73234558 262.323349 C168.07527631 262.33648259 162.41821891 262.34291978 156.76113677 262.34735966 C153.22845979 262.35028873 149.69578607 262.35439321 146.16311073 262.35886383 C135.11490557 262.37254105 124.06670783 262.38220671 113.01849478 262.38606572 C100.25611375 262.39054771 87.49383975 262.40810125 74.73149127 262.43706632 C64.87239301 262.45866715 55.01332491 262.46876914 45.15420324 262.47010684 C39.263066 262.47115598 33.37202935 262.47708699 27.48091698 262.49492645 C21.9397473 262.51137953 16.39875411 262.51357603 10.85756874 262.50478745 C8.82342176 262.5040156 6.78926541 262.50837913 4.75514221 262.5182457 C1.97867572 262.53092354 -0.79716175 262.525111 -3.57362366 262.5146637 C-4.37898129 262.5227201 -5.18433892 262.53077651 -6.01410133 262.53907704 C-11.67747099 262.48922142 -15.92227758 261.40725595 -20.18658447 257.39326477 C-20.66482666 256.79642883 -21.14306885 256.1995929 -21.63580322 255.58467102 C-22.12693604 254.98525696 -22.61806885 254.3858429 -23.12408447 253.76826477 C-25.78203428 250.17527074 -25.45719817 246.88123719 -25.43414307 242.57954407 C-25.43378178 241.80176165 -25.43342049 241.02397923 -25.43304825 240.22262764 C-25.43027764 237.63884371 -25.41996201 235.0551521 -25.40924072 232.47138977 C-25.40496428 230.65414483 -25.40092932 228.83689931 -25.39712524 227.01965332 C-25.35093197 209.17659484 -25.19869206 191.33449445 -24.97935104 173.49278641 C-24.94765463 170.90675374 -24.91697704 168.32071012 -24.88632202 165.73466492 C-24.55555695 138.27798177 -23.87592293 110.84912292 -22.85168457 83.40974426 C-22.29687645 68.44631412 -22.2029573 53.78523311 -23.32330322 38.83467102 C-25.11607404 14.54747177 -25.11607404 14.54747177 -21.32330322 8.14717102 C-14.66543455 0.94168544 -9.64201744 -0.00228798 0 0 Z M201.67669678 97.14717102 C202.33669678 98.46717102 202.99669678 99.78717102 203.67669678 101.14717102 C204.33669678 100.81717102 204.99669678 100.48717102 205.67669678 100.14717102 C206.33442106 97.11782612 206.33442106 97.11782612 206.67669678 94.14717102 C204.70846792 94.14717102 203.17141133 95.98997266 201.67669678 97.14717102 Z M210.67669678 199.14717102 C210.65165018 203.21820621 210.63367589 207.28921048 210.62176514 211.36030579 C210.61679053 212.74019656 210.61000846 214.12008223 210.60125732 215.49995422 C210.55013907 223.77810426 210.71611962 231.91999556 211.67669678 240.14717102 C212.00669678 240.14717102 212.33669678 240.14717102 212.67669678 240.14717102 C213.39317548 235.11238372 214.10512149 230.07698376 214.81292725 225.04096985 C215.05420336 223.32888102 215.29670376 221.61696425 215.54046631 219.90522766 C215.89120547 217.44074824 216.23749577 214.9756778 216.58294678 212.51045227 C216.69231567 211.74880264 216.80168457 210.98715302 216.91436768 210.2024231 C217.43021713 206.49025315 217.80632449 202.89665274 217.67669678 199.14717102 C215.36669678 199.14717102 213.05669678 199.14717102 210.67669678 199.14717102 Z " fill="#010101" transform="translate(1127.3233032226563,862.8528289794922)"/>
<path d="M0 0 C660 0 1320 0 2000 0 C2000 157.08 2000 314.16 2000 476 C1785.83 476 1571.66 476 1351 476 C1351 470.39 1351 464.78 1351 459 C1559.89 459 1768.78 459 1984 459 C1984 312.81 1984 166.62 1984 16 C1334.56 16 685.12 16 16 16 C16 162.19 16 308.38 16 459 C61.61089844 458.98839844 107.22179688 458.97679687 154.21484375 458.96484375 C181.29407932 458.96004233 208.37331457 458.95530829 235.45255029 458.95183504 C251.32762297 458.94979372 267.20269565 458.94770574 283.0777683 458.94547401 C284.99810552 458.94520417 286.91844273 458.9449358 288.83877995 458.94466891 C319.48102594 458.94039812 350.12327009 458.9328914 380.76551497 458.92370278 C412.24477668 458.91428025 443.72403737 458.9081169 475.20330046 458.90608501 C479.64423179 458.90579683 484.08516311 458.9054712 488.52609444 458.90512276 C489.40017812 458.90505533 490.2742618 458.90498791 491.17483286 458.90491844 C505.27462644 458.90373434 519.37441689 458.89908986 533.47420918 458.89316797 C547.631409 458.8872952 561.78860568 458.88502837 575.94580667 458.88649862 C584.3683877 458.8872622 592.79095733 458.88520483 601.21353631 458.87920246 C607.48511161 458.87503628 613.75667577 458.87602488 620.02825148 458.87910111 C622.57872378 458.87952706 625.12919702 458.87822913 627.67966747 458.87511682 C631.12205586 458.87115731 634.56438662 458.87323381 638.00677395 458.87695217 C639.01809325 458.87432516 640.02941256 458.87169814 641.0713779 458.86899152 C641.97954487 458.87123882 642.88771183 458.87348611 643.82339901 458.8758015 C644.61188106 458.87564552 645.40036312 458.87548954 646.21273857 458.87532884 C648 459 648 459 649 460 C649 465.28 649 470.56 649 476 C434.83 476 220.66 476 0 476 C0 318.92 0 161.84 0 0 Z " fill="#FEFEFE" transform="translate(0,779)"/>
<path d="M0 0 C0.70240875 -0.00694553 1.4048175 -0.01389106 2.12851137 -0.02104706 C4.47064042 -0.03927108 6.81175119 -0.02906608 9.15391541 -0.01878357 C10.83812719 -0.02584481 12.52233262 -0.03459069 14.20652771 -0.04489136 C18.77518548 -0.06738285 23.34349673 -0.06444461 27.91218877 -0.05556989 C31.73372311 -0.05045342 35.5551927 -0.05775865 39.37672037 -0.06504196 C48.4013053 -0.08204325 57.42572119 -0.07847639 66.45030212 -0.06175232 C75.73661557 -0.0448646 85.0224578 -0.06061878 94.30871969 -0.0929752 C102.29797262 -0.11975005 110.28707959 -0.12692485 118.27637285 -0.11846012 C123.04042438 -0.11354968 127.80419309 -0.11564259 132.56820869 -0.13624763 C137.05574561 -0.15472671 141.54261144 -0.14849827 146.03011322 -0.12404823 C147.66785034 -0.11907715 149.30563965 -0.12243265 150.94333458 -0.13519669 C166.40569553 -0.24607508 177.72965943 3.63538376 189.79820251 13.5146637 C190.60257751 14.15532776 191.40695251 14.79599182 192.23570251 15.45606995 C209.85175333 30.18570703 217.34442401 53.22622183 219.61192322 75.34608459 C220.14909439 81.59958776 220.14329575 87.86765313 220.11070251 94.1396637 C220.1088797 94.87457031 220.10705688 95.60947693 220.10517883 96.36665344 C219.99015942 124.07396718 215.26714359 146.31125208 199.79820251 169.5146637 C200.1522791 174.4065595 201.39715499 178.71885769 203.02085876 183.3271637 C203.47871305 184.64849645 203.9359622 185.970039 204.39268494 187.29176331 C204.75237869 188.32404556 204.75237869 188.32404556 205.11933899 189.37718201 C209.36453489 201.61682989 213.20959751 213.91776791 216.48570251 226.4521637 C216.82416199 227.71737854 217.16262146 228.98259338 217.51133728 230.28614807 C221.87523101 247.44179903 221.87523101 247.44179903 217.54820251 254.9521637 C214.7883376 258.81909307 212.34359508 260.99953284 207.79820251 262.5146637 C204.89357749 262.62164616 202.01259705 262.67193075 199.10752869 262.67579651 C198.21939987 262.68076141 197.33127106 262.68572632 196.41622925 262.69084167 C193.4745354 262.70546103 190.53289549 262.71226507 187.59117126 262.7177887 C185.54716999 262.72354051 183.50316873 262.72929824 181.45916748 262.73506165 C177.17105355 262.74557111 172.88295837 262.75141408 168.59483337 262.75489807 C163.10360885 262.76038148 157.61263244 262.78440655 152.12148571 262.81287003 C147.89811482 262.83150599 143.67480357 262.83670253 139.45139503 262.83823395 C137.42722022 262.84125903 135.40304642 262.84928267 133.37891197 262.86241913 C130.54477005 262.87949886 127.71123264 262.87759457 124.87705994 262.87110901 C124.04307678 262.88032379 123.20909363 262.88953857 122.34983826 262.89903259 C116.7664466 262.85906579 112.47647562 261.95241228 108.18882751 258.04981995 C106.05899968 255.30000798 104.28747901 252.64891378 102.79820251 249.5146637 C102.45208923 250.31130432 102.45208923 250.31130432 102.09898376 251.1240387 C99.64007942 256.45004495 97.19174318 259.81789336 91.79820251 262.5146637 C88.77880174 262.62388101 85.78211651 262.67200499 82.7620697 262.67579651 C81.82531906 262.68076141 80.88856842 262.68572632 79.9234314 262.69084167 C76.81397271 262.70548653 73.70456507 262.7122698 70.59507751 262.7177887 C68.43754576 262.72353903 66.28001402 262.72929678 64.1224823 262.73506165 C59.59299989 262.74557879 55.06353527 262.75141652 50.53404236 262.75489807 C44.73227696 262.76037881 38.93074673 262.78439497 33.12905502 262.81287003 C28.66977759 262.8315035 24.21055666 262.83670243 19.75124359 262.83823395 C17.61263496 262.8412603 15.47402731 262.84928823 13.33545685 262.86241913 C10.34076123 262.87949125 7.34663811 262.87759618 4.35191345 262.87110901 C3.46960556 262.88032379 2.58729767 262.88953857 1.67825317 262.89903259 C-3.36749925 262.86482746 -6.83097835 262.31579312 -11.20179749 259.5146637 C-14.90518473 255.50266085 -17.44817757 251.87050486 -17.45906639 246.32788467 C-17.46873973 245.07976655 -17.46873973 245.07976655 -17.47860849 243.80643392 C-17.47551129 242.89749655 -17.47241408 241.98855917 -17.46922302 241.05207825 C-17.47375414 240.08241961 -17.47828525 239.11276098 -17.48295367 238.11371875 C-17.49564131 234.85571743 -17.49397447 231.59788234 -17.49232483 228.33985901 C-17.49830741 226.00744918 -17.50511232 223.67504133 -17.51268005 221.34263611 C-17.53037621 214.99955235 -17.535037 208.65652253 -17.53631163 202.31341648 C-17.53820909 197.02021486 -17.545565 191.72702585 -17.55265582 186.43382907 C-17.56830456 174.65882263 -17.57399251 162.88383959 -17.57264511 151.10882369 C-17.5725652 150.40228214 -17.57248529 149.69574059 -17.57240295 148.9677887 C-17.57232119 148.26038287 -17.57223943 147.55297704 -17.57215519 146.82413468 C-17.57134263 135.36458556 -17.5904722 123.905168 -17.61867969 112.44565693 C-17.64742336 100.67527312 -17.66121911 88.90495343 -17.65949214 77.13453364 C-17.65898203 70.52792016 -17.66469178 63.92145546 -17.68584824 57.31487274 C-17.70520673 51.09978661 -17.70537114 44.88499154 -17.69081497 38.66989517 C-17.68872273 36.38986664 -17.69345239 34.10982001 -17.70553589 31.82982254 C-17.72097523 28.71460068 -17.71168809 25.60038399 -17.6962738 22.48518372 C-17.70656093 21.58516923 -17.71684806 20.68515475 -17.72744691 19.7578671 C-17.66358916 13.90842515 -16.71362055 9.29954051 -13.20179749 4.5146637 C-8.86949383 0.69615186 -5.69783657 0.01276054 0 0 Z " fill="#FDFDFD" transform="translate(875.2017974853516,863.4853363037109)"/>
<path d="M0 0 C2.0305702 -0.00457239 4.06113885 -0.00988107 6.09170532 -0.0158844 C10.32943035 -0.02477315 14.5669665 -0.02244115 18.8046875 -0.01245117 C24.19622802 -0.00097051 29.58711265 -0.02118133 34.97856712 -0.05036831 C39.16714519 -0.06884299 43.35556936 -0.06841548 47.54417801 -0.06273079 C49.53020777 -0.06257893 51.51624888 -0.06850924 53.50223923 -0.08102226 C76.47905369 -0.20542547 98.66652181 5.11835256 115.9140625 21.43359375 C115.9140625 22.09359375 115.9140625 22.75359375 115.9140625 23.43359375 C116.5740625 23.43359375 117.2340625 23.43359375 117.9140625 23.43359375 C127.32293449 33.96173676 134.65715798 45.97820271 139.2890625 59.30859375 C139.52786133 59.97850342 139.76666016 60.64841309 140.01269531 61.33862305 C144.29966524 74.59814037 144.21906156 88.85806861 144.1796875 102.64453125 C144.18104065 104.34974218 144.18298653 106.05495272 144.18548584 107.76016235 C144.1884082 111.30824511 144.18423485 114.8562261 144.17480469 118.40429688 C144.16342957 122.89736763 144.169976 127.39019878 144.18194962 131.88326073 C144.18926215 135.39767175 144.18683753 138.9120283 144.18169403 142.42644119 C144.1803824 144.08063411 144.18191526 145.73483236 144.18665314 147.38901901 C144.20592283 156.00494216 143.95372419 164.50906608 143.03027344 173.08056641 C142.91567968 174.15942391 142.91567968 174.15942391 142.7987709 175.26007652 C139.94913641 199.20041551 126.08883561 224.1416824 107.46875 239.3203125 C86.85100388 255.3591107 65.09070258 262.78897525 38.9453125 262.69921875 C37.53389418 262.70057099 36.12247632 262.70251613 34.71105957 262.70501709 C31.77298487 262.70794213 28.83503293 262.70375618 25.89697266 262.69433594 C22.16546093 262.68294294 18.43423711 262.68951663 14.7027359 262.70148087 C11.79418846 262.70877095 8.88570723 262.70637908 5.97715759 262.70122528 C4.60269637 262.69990845 3.22822878 262.70146592 1.85377502 262.70618439 C-21.78792965 262.76957113 -42.81152682 255.71832579 -61.0859375 240.43359375 C-62.0759375 239.71171875 -63.0659375 238.98984375 -64.0859375 238.24609375 C-77.69742776 226.58445885 -88.07025165 204.86486321 -91.0859375 187.43359375 C-91.17604806 185.7857792 -91.2205354 184.13502268 -91.22637939 182.48475647 C-91.23208954 181.51365936 -91.23779968 180.54256226 -91.24368286 179.54203796 C-91.24480072 178.48797256 -91.24591858 177.43390717 -91.24707031 176.34790039 C-91.25203522 175.2284906 -91.25700012 174.10908081 -91.26211548 172.95574951 C-91.27672019 169.2517434 -91.28353807 165.54778018 -91.2890625 161.84375 C-91.2948175 159.26126607 -91.30057519 156.67878214 -91.30633545 154.09629822 C-91.31549996 149.36906398 -91.32180071 144.64184679 -91.3248322 139.9146052 C-91.32929841 132.99043699 -91.34678142 126.06646761 -91.3758328 119.14235979 C-91.40021337 113.11905278 -91.40778437 107.09583842 -91.40950775 101.07247734 C-91.41251909 98.52461099 -91.42049578 95.97674516 -91.43369293 93.42891121 C-91.56291818 66.55137627 -88.0016405 44.25933917 -68.4609375 24.24609375 C-58.58325268 14.4958972 -47.49867679 7.39809274 -34.0859375 3.43359375 C-32.87018288 3.06455681 -32.87018288 3.06455681 -31.62986755 2.68806458 C-21.11901989 -0.1396249 -10.81516247 -0.02149841 0 0 Z " fill="#FEFEFE" transform="translate(445.0859375,862.56640625)"/>
<path d="M0 0 C0.65819524 -0.0055344 1.31639048 -0.01106879 1.99453104 -0.0167709 C4.18704253 -0.03031959 6.37840405 -0.01544088 8.57089233 -0.00050354 C10.14835085 -0.00428908 11.72580603 -0.00979105 13.30325317 -0.01687622 C17.58056836 -0.0308245 21.85748094 -0.01966249 26.13477373 -0.00316501 C30.62148871 0.01071282 35.10818095 0.00422175 39.59490967 0.0007019 C47.13547219 -0.00199973 54.67587552 0.01146563 62.21640015 0.03465271 C70.91074461 0.06120428 79.60482197 0.06302779 88.29919302 0.05126435 C96.68306148 0.04044568 105.06683415 0.04670934 113.45069504 0.06081963 C117.00780907 0.06654992 120.56485233 0.06652002 124.12196732 0.06175423 C128.3229293 0.05694578 132.52360293 0.06724443 136.72451019 0.08870888 C138.25784457 0.09422683 139.79120695 0.09478857 141.324543 0.08975601 C153.48718549 0.05487441 164.45079398 1.50576093 175.33407593 7.18870544 C176.01075317 7.53538269 176.68743042 7.88205994 177.38461304 8.23924255 C183.23871778 11.33420336 188.3225187 15.02337512 193.20907593 19.50120544 C193.84071655 20.06452576 194.47235718 20.62784607 195.12313843 21.20823669 C210.1044047 35.2985466 220.26899674 58.86580912 221.30764771 79.45521545 C221.35725061 81.71720495 221.37386022 83.97695419 221.37704468 86.23948669 C221.38037308 87.07852036 221.38370148 87.91755402 221.38713074 88.78201294 C221.39217985 90.55795243 221.39453969 92.33390136 221.39437866 94.10984802 C221.39653811 96.76716295 221.41463965 99.42404346 221.4336853 102.08128357 C221.4844917 116.69340923 221.05780502 131.22885667 216.08407593 145.12620544 C215.77695679 146.00663513 215.46983765 146.88706482 215.15341187 147.79417419 C205.18862286 175.42610172 185.30265497 194.2674709 159.02157593 206.93870544 C148.70043206 211.39010788 137.36732614 213.46644393 126.33407593 215.31370544 C125.61067017 215.43777771 124.8872644 215.56184998 124.14193726 215.68968201 C117.50646082 216.69963891 110.90779083 216.61205122 104.20907593 216.50120544 C104.21076782 217.97544983 104.21076782 217.97544983 104.2124939 219.47947693 C104.2087921 223.16461832 104.16572311 226.84847372 104.11141968 230.53318787 C104.09337464 232.12066807 104.08567012 233.70830383 104.08895874 235.29588318 C104.10886611 251.11726797 104.10886611 251.11726797 99.07675171 257.85691833 C93.7123999 262.57965159 88.62609408 262.94064054 81.82650757 262.90525818 C80.43754524 262.91555305 80.43754524 262.91555305 79.02052307 262.92605591 C75.9699353 262.94430645 72.91986266 262.94048884 69.86923218 262.93479919 C67.74223158 262.93936182 65.61523246 262.94466763 63.48823547 262.95068359 C59.03387456 262.95961128 54.57969297 262.95719538 50.12533569 262.94725037 C44.42454342 262.93576114 38.72437061 262.95597359 33.02365971 262.9851675 C28.63208603 263.00353657 24.24066061 263.0032356 19.84905815 262.99752998 C17.74756438 262.99737686 15.6460605 263.00341402 13.54460335 263.01582146 C10.60302281 263.03074273 7.66258426 263.02004568 4.72103882 263.00291443 C3.85796112 263.0125824 2.99488342 263.02225037 2.10565186 263.0322113 C-4.34862105 262.95372561 -8.88332568 261.47399663 -13.53311157 256.71995544 C-13.9069397 256.15276794 -14.28076782 255.58558044 -14.66592407 255.00120544 C-15.05522095 254.43401794 -15.44451782 253.86683044 -15.84561157 253.28245544 C-17.56354267 250.04536214 -17.9155819 247.01784845 -17.80967712 243.39222717 C-17.77864238 242.15833189 -17.77864238 242.15833189 -17.74698067 240.89950943 C-17.71934576 239.99285915 -17.69171085 239.08620888 -17.66323853 238.15208435 C-17.61272189 236.10322118 -17.56289331 234.05434098 -17.5136261 232.00544739 C-17.48542974 230.89187237 -17.45723339 229.77829735 -17.4281826 228.63097763 C-16.78270645 202.29602326 -16.73788246 175.97279541 -16.82446432 149.63151836 C-16.83706117 145.64761611 -16.84731147 141.66370936 -16.85748112 137.67980027 C-16.90219905 120.18953854 -16.95343258 102.69933312 -17.03775024 85.20921326 C-17.08220132 75.96720569 -17.11246438 66.72526759 -17.12660772 57.48316252 C-17.13620298 51.69414684 -17.16294155 45.90555717 -17.20270002 40.11667418 C-17.22295558 36.54911689 -17.22644371 32.9816919 -17.22506142 29.41408348 C-17.22775666 27.76527099 -17.23731466 26.11645308 -17.25428772 24.46772575 C-17.27646147 22.21718628 -17.27387429 19.96796329 -17.26521301 17.71736145 C-17.270199 16.46086981 -17.27518499 15.20437817 -17.28032207 13.90981102 C-16.49990876 8.47431441 -14.1281004 5.61033009 -9.96535683 2.15753078 C-6.3321858 0.26184935 -4.07902066 0.00072744 0 0 Z " fill="#FEFEFE" transform="translate(622.7909240722656,862.4987945556641)"/>
<path d="M0 0 C0.82265173 -0.00241442 1.64530347 -0.00482883 2.49288404 -0.00731641 C5.25903832 -0.01296787 8.02496315 -0.00427945 10.79110718 0.00431824 C12.77019819 0.00324573 14.74928889 0.00130752 16.7283783 -0.00143433 C22.11035844 -0.00629019 27.49225594 0.00138179 32.87422609 0.01151872 C38.49653312 0.02028499 44.11883744 0.01854206 49.7411499 0.01815796 C59.18180733 0.01909511 68.62243266 0.02778675 78.06307983 0.04142761 C88.9938712 0.05716275 99.92462742 0.06242544 110.85542929 0.06169206 C121.35315225 0.06108275 131.85086371 0.06617874 142.34858322 0.07448387 C146.8246609 0.07802372 151.3007345 0.07984812 155.77681351 0.08037758 C161.04132573 0.08137856 166.30580818 0.08745501 171.57031059 0.09754372 C173.50818512 0.10047636 175.44606308 0.10169255 177.38393974 0.10111618 C180.0174666 0.10062911 182.65090872 0.10624516 185.28442383 0.11352539 C186.06154523 0.11197679 186.83866664 0.11042819 187.63933718 0.10883266 C192.90104956 0.13305945 192.90104956 0.13305945 194.01522827 1.24723816 C194.1147512 3.38924139 194.14322506 5.53456521 194.1446228 7.67887878 C194.14725128 8.68618294 194.14725128 8.68618294 194.14993286 9.71383667 C194.15435057 11.94374644 194.15141369 14.17357752 194.14804077 16.40348816 C194.14871383 17.94666052 194.14968388 19.48983277 194.15093994 21.03300476 C194.1524168 24.27125556 194.15026274 27.50947883 194.14559937 30.74772644 C194.13990208 34.90766339 194.14318114 39.06753582 194.14917183 43.2274704 C194.15277776 46.41523224 194.15163871 49.60297867 194.14904404 52.79074097 C194.14837486 54.32501228 194.14920288 55.85928498 194.15152359 57.39355469 C194.15405065 59.53427357 194.15020882 61.67488658 194.1446228 63.81559753 C194.14382721 65.03613831 194.14303162 66.25667908 194.14221191 67.51420593 C194.01522827 70.24723816 194.01522827 70.24723816 193.01522827 71.24723816 C190.48325839 71.3564009 187.97756946 71.40146416 185.44467163 71.404953 C184.65092636 71.41003372 183.85718109 71.41511444 183.03938293 71.42034912 C181.30696163 71.43108287 179.57452619 71.43969116 177.84208488 71.44646835 C175.08613267 71.45825667 172.33033722 71.47771786 169.57444763 71.49958801 C161.73501961 71.56114537 153.89560066 71.61490169 146.05599976 71.64860535 C141.26306015 71.66976588 136.47039506 71.70525482 131.67761421 71.74936295 C129.86270995 71.76337742 128.04775698 71.77221187 126.23280144 71.77541733 C105.49944134 71.38017565 105.49944134 71.38017565 87.01522827 79.24723816 C85.405897 82.4659007 85.40729018 85.76662554 86.01522827 89.24723816 C88.58588467 92.44318936 91.66893292 95.92958498 95.92769814 96.50615788 C97.0166919 96.51250578 97.0166919 96.51250578 98.12768555 96.51898193 C99.38120567 96.53355942 99.38120567 96.53355942 100.66004944 96.5484314 C102.0300988 96.54931511 102.0300988 96.54931511 103.42782593 96.55021667 C104.3922612 96.55865601 105.35669647 96.56709534 106.35035706 96.57579041 C109.54333983 96.60161557 112.73623018 96.61371803 115.92929077 96.62614441 C118.14221944 96.64231146 120.35514093 96.6594906 122.5680542 96.67764282 C128.39719332 96.7233797 134.22634186 96.7581628 140.05557251 96.7898407 C149.39417637 96.84167678 158.73267509 96.90667184 168.07114792 96.97805595 C171.34234429 97.00097314 174.61352713 97.01718888 177.88476562 97.03277588 C179.87698517 97.0461763 181.8692033 97.05979056 183.86141968 97.07365417 C184.77883438 97.07626755 185.69624908 97.07888092 186.64146423 97.08157349 C192.90159176 97.13360165 192.90159176 97.13360165 194.01522827 98.24723816 C194.39294835 102.11102737 194.38843652 105.99256374 194.45272827 109.87223816 C194.49848999 110.91508972 194.54425171 111.95794128 194.59140015 113.03239441 C194.75217635 124.90187239 191.28351621 135.92977904 188.01522827 147.24723816 C186.36604652 147.23724541 186.36604652 147.23724541 184.68354797 147.22705078 C174.31087807 147.16617648 163.93824452 147.12123513 153.56543636 147.09180164 C148.23295063 147.07616078 142.90060938 147.05495119 137.56820679 147.0209198 C132.41997931 146.98827026 127.27189062 146.97037326 122.12356758 146.96260643 C120.16161477 146.95707298 118.19966937 146.9462675 116.2377758 146.93004799 C113.48496088 146.90819945 110.73271588 146.90527435 107.97982788 146.90666199 C107.17277908 146.89587616 106.36573029 146.88509033 105.53422546 146.87397766 C99.1824298 146.90851342 94.33378207 148.04758455 89.57772827 152.55973816 C87.67805873 155.82716977 87.4719083 157.5216155 88.01522827 161.24723816 C89.32605959 165.08610131 91.52943298 166.85846196 94.91366577 168.87614441 C103.01659938 172.79820854 111.98532006 171.81312281 120.76522827 171.62223816 C122.62002502 171.60021357 124.47484464 171.58003993 126.3296814 171.56169128 C137.37253493 171.43106276 148.40312122 171.09717192 159.42929077 170.46989441 C166.62388566 170.077378 173.81233317 170.18405487 181.01522827 170.24723816 C180.02522827 175.19723816 179.03522827 180.14723816 178.01522827 185.24723816 C183.29522827 185.24723816 188.57522827 185.24723816 194.01522827 185.24723816 C194.63476558 197.72648963 195.11745252 210.18844429 195.14022827 222.68473816 C195.14699585 224.24708191 195.14699585 224.24708191 195.15390015 225.84098816 C195.15196655 226.7987616 195.15003296 227.75653503 195.14804077 228.74333191 C195.14691284 229.59080994 195.14578491 230.43828796 195.1446228 231.31144714 C195.01522827 233.24723816 195.01522827 233.24723816 194.01522827 234.24723816 C191.37696302 234.3494887 188.76472578 234.38610186 186.12583923 234.38095093 C185.28926771 234.38321648 184.45269618 234.38548204 183.590774 234.38781625 C180.76552954 234.3941861 177.94033267 234.39332499 175.11508179 234.39250183 C173.09849993 234.39549146 171.08191865 234.39889353 169.06533813 234.40267944 C163.57163356 234.41154348 158.07794455 234.41385856 152.58423352 234.41449523 C148.00639554 234.41544228 143.42856122 234.4191182 138.85072464 234.42266732 C128.05521551 234.43082097 117.25971473 234.43325073 106.46420288 234.43254089 C95.30851843 234.43193981 84.1528823 234.44249573 72.99721009 234.45828456 C63.43630131 234.47133671 53.87540836 234.47672577 44.31449074 234.47608548 C38.59673902 234.47582982 32.8790302 234.47871865 27.16128731 234.48926353 C21.7859798 234.49890556 16.41075655 234.49905064 11.03544617 234.4917469 C9.05767634 234.4906962 7.07990138 234.49309249 5.10214043 234.49910736 C2.41185971 234.506762 -0.27812524 234.50222622 -2.96839905 234.49447632 C-4.15510394 234.50219166 -4.15510394 234.50219166 -5.36578268 234.51006287 C-10.75650052 234.47550937 -10.75650052 234.47550937 -12.98477173 232.24723816 C-13.10485922 229.34826027 -13.09415109 226.55182908 -12.99649048 223.65739441 C-12.9630529 222.26748795 -12.9630529 222.26748795 -12.92893982 220.84950256 C-12.87863238 218.77949165 -12.8239082 216.70958489 -12.76553345 214.63978577 C-12.60062992 208.75166159 -12.47063955 202.86277525 -12.34024048 196.97380066 C-12.32539989 196.31768484 -12.31055931 195.66156902 -12.29526901 194.98557091 C-12.00324462 181.95659638 -11.85150005 168.92717562 -11.72305298 155.89567566 C-11.71292364 154.88221258 -11.7027943 153.8687495 -11.69235802 152.82457542 C-11.60007599 143.55927034 -11.51127587 134.29393738 -11.43115234 125.02851868 C-11.38851629 120.10214105 -11.34183057 115.17581599 -11.29257774 110.24950027 C-11.27512779 108.41788848 -11.25929214 106.58626045 -11.24521828 104.7546196 C-11.17866887 96.12211939 -11.03018583 87.58542043 -10.20639038 78.9855957 C-9.80976956 74.08488183 -9.8422288 69.18464125 -9.85195923 64.27067566 C-9.8510025 63.17937347 -9.85004578 62.08807129 -9.84906006 60.96369934 C-9.84838489 58.67637575 -9.85019243 56.38905017 -9.85440063 54.10173035 C-9.85976878 50.62414715 -9.85442756 47.14669247 -9.84805298 43.66911316 C-9.84871368 41.43213371 -9.84999466 39.19515434 -9.85195923 36.95817566 C-9.849935 35.93187042 -9.84791077 34.90556519 -9.8458252 33.84815979 C-9.86360384 28.31195951 -10.12045104 22.89073888 -10.75085449 17.38923645 C-11.08373714 14.3410042 -11.19056766 11.31205368 -11.23477173 8.24723816 C-11.26055298 7.15411316 -11.28633423 6.06098816 -11.31289673 4.93473816 C-11.15047485 3.60442566 -11.15047485 3.60442566 -10.98477173 2.24723816 C-7.23879361 -0.25008059 -4.33546373 -0.02886099 0 0 Z " fill="#FEFEFE" transform="translate(1128.9847717285156,876.7527618408203)"/>
<path d="M0 0 C29.7 0 59.4 0 90 0 C90 20.13 90 40.26 90 61 C91.98 61.495 91.98 61.495 94 62 C97.07655763 58.49619841 98.73120669 55.58121035 100.04296875 51.1171875 C100.39037109 49.96186523 100.73777344 48.80654297 101.09570312 47.61621094 C101.63614258 45.76431152 101.63614258 45.76431152 102.1875 43.875 C102.96700371 41.27172352 103.7551748 38.67109038 104.54296875 36.0703125 C104.84266068 35.07547852 104.84266068 35.07547852 105.14840698 34.06054688 C107.30861814 26.91545718 109.63740709 19.83060342 112 12.75 C112.38567139 11.58452637 112.77134277 10.41905273 113.16870117 9.21826172 C113.70394409 7.61748779 113.70394409 7.61748779 114.25 5.984375 C114.72179688 4.57236816 114.72179688 4.57236816 115.203125 3.13183594 C116 1 116 1 117 0 C119.8250333 -0.10053508 122.62565285 -0.13615716 125.45117188 -0.12939453 C126.33728653 -0.13114685 127.22340118 -0.13289917 128.1363678 -0.13470459 C131.08051482 -0.1391244 134.02460231 -0.13618467 136.96875 -0.1328125 C139.00516776 -0.1334855 141.04158544 -0.1344555 143.07800293 -0.13571167 C147.35197716 -0.13718882 151.62593053 -0.13503355 155.89990234 -0.13037109 C161.39158539 -0.1246738 166.88321957 -0.12795271 172.37490082 -0.13394356 C176.58177054 -0.13754872 180.78862859 -0.13641079 184.99549866 -0.13381577 C187.02100124 -0.13314637 189.04650486 -0.13397535 191.07200623 -0.13629532 C193.8976423 -0.1388211 196.72319807 -0.1349823 199.54882812 -0.12939453 C200.81745445 -0.13243088 200.81745445 -0.13243088 202.11170959 -0.13552856 C207.88573759 -0.11426241 207.88573759 -0.11426241 209 1 C209.1515996 14.09820551 204.16778985 27.74627445 200.3527832 40.13208008 C198.38560708 46.56637251 196.65813394 53.0423525 195 59.5625 C193.19560492 66.63490588 191.25126915 73.61918931 189 80.5625 C186.73371327 87.59183001 184.5795772 94.6447629 182.5625 101.75 C182.29115234 102.66724854 182.01980469 103.58449707 181.74023438 104.52954102 C178.8597662 114.86618128 182.02586816 122.22835567 185.6875 132 C190.27384191 144.48725335 194.00126698 157.03455219 197 170 C197.20931152 170.89895996 197.41862305 171.79791992 197.63427734 172.72412109 C200.43453558 184.8861765 202.8530238 197.12828879 205.25 209.375 C205.38092041 210.03935059 205.51184082 210.70370117 205.64672852 211.38818359 C206.02377397 213.30747122 206.39477764 215.22794264 206.765625 217.1484375 C206.97993164 218.25364746 207.19423828 219.35885742 207.41503906 220.49755859 C208.10705715 224.64100242 208.53609537 228.82485829 209 233 C177.32 233 145.64 233 113 233 C108.40686813 216.92403846 108.40686813 216.92403846 106.625 209.25 C106.42003906 208.38729492 106.21507812 207.52458984 106.00390625 206.63574219 C104.78973061 201.49730724 103.63667565 196.34874494 102.5234375 191.1875 C102.14324463 189.45838379 102.14324463 189.45838379 101.75537109 187.69433594 C101.26436145 185.45543351 100.78486599 183.21396395 100.31884766 180.96972656 C98.83739724 174.26201932 96.7186323 168.78739711 93 163 C91.68 163.33 90.36 163.66 89 164 C88.138342 172.2394739 87.74278772 180.44784623 87.5 188.7265625 C87.41674196 191.32942949 87.33340644 193.93229401 87.25 196.53515625 C87.12273838 200.60621406 86.99836172 204.67735754 86.875 208.74853516 C86.75491832 212.69970506 86.62733872 216.65061978 86.5 220.6015625 C86.44682617 222.44507797 86.44682617 222.44507797 86.39257812 224.32583618 C86.35583984 225.45145966 86.31910156 226.57708313 86.28125 227.73681641 C86.25095703 228.73178131 86.22066406 229.72674622 86.18945312 230.75186157 C86 233 86 233 85 234 C82.47458998 234.09504251 79.97662874 234.12557158 77.45092773 234.11352539 C76.26564987 234.11374443 76.26564987 234.11374443 75.056427 234.1139679 C72.43212178 234.11326857 69.80788664 234.10547527 67.18359375 234.09765625 C65.36898335 234.09579214 63.55437244 234.0943682 61.73976135 234.09336853 C56.9540977 234.08954279 52.1684642 234.07971204 47.3828125 234.06866455 C42.50325936 234.05845163 37.62370136 234.05387117 32.74414062 234.04882812 C23.16274714 234.03808982 13.58137607 234.02101273 4 234 C5.28837776 230.04214304 6.68828617 226.40953058 8.6171875 222.71875 C9.13498779 221.72439941 9.65278809 220.73004883 10.1862793 219.70556641 C10.74355713 218.64772949 11.30083496 217.58989258 11.875 216.5 C12.45870361 215.38415527 13.04240723 214.26831055 13.64379883 213.11865234 C17.70516573 205.38255848 21.88033922 197.71437376 26.10009766 190.06396484 C34.05072055 175.54645579 41.47489581 160.74106082 49 146 C48.12714355 146.0714624 47.25428711 146.1429248 46.35498047 146.21655273 C38.59181384 146.81723024 30.90945494 147.13248473 23.125 147.0625 C22.13886719 147.05798828 21.15273437 147.05347656 20.13671875 147.04882812 C17.75774203 147.03727969 15.37890865 147.02100368 13 147 C14.31398393 142.69725263 15.97783488 138.94551425 18.16796875 135.01953125 C18.80621582 133.86936523 19.44446289 132.71919922 20.10205078 131.53417969 C20.79710588 130.29356677 21.49225817 129.05300829 22.1875 127.8125 C22.90916005 126.51621131 23.63034397 125.21965745 24.35107422 123.92285156 C25.83574014 121.25323926 27.3231933 118.58521031 28.81298828 115.91845703 C30.8499703 112.27121344 32.87752328 108.61885396 34.90234375 104.96484375 C43.22439454 89.95178284 51.61281076 74.97712365 60 60 C40.2 60 20.4 60 0 60 C0 40.2 0 20.4 0 0 Z " fill="#FDFDFD" transform="translate(1362,877)"/>
<path d="M0 0 C0.70240875 -0.00694553 1.4048175 -0.01389106 2.12851137 -0.02104706 C4.47064042 -0.03927108 6.81175119 -0.02906608 9.15391541 -0.01878357 C10.83812719 -0.02584481 12.52233262 -0.03459069 14.20652771 -0.04489136 C18.77518548 -0.06738285 23.34349673 -0.06444461 27.91218877 -0.05556989 C31.73372311 -0.05045342 35.5551927 -0.05775865 39.37672037 -0.06504196 C48.4013053 -0.08204325 57.42572119 -0.07847639 66.45030212 -0.06175232 C75.73661557 -0.0448646 85.0224578 -0.06061878 94.30871969 -0.0929752 C102.29797262 -0.11975005 110.28707959 -0.12692485 118.27637285 -0.11846012 C123.04042438 -0.11354968 127.80419309 -0.11564259 132.56820869 -0.13624763 C137.05574561 -0.15472671 141.54261144 -0.14849827 146.03011322 -0.12404823 C147.66785034 -0.11907715 149.30563965 -0.12243265 150.94333458 -0.13519669 C166.40569553 -0.24607508 177.72965943 3.63538376 189.79820251 13.5146637 C190.60257751 14.15532776 191.40695251 14.79599182 192.23570251 15.45606995 C209.85175333 30.18570703 217.34442401 53.22622183 219.61192322 75.34608459 C220.14909439 81.59958776 220.14329575 87.86765313 220.11070251 94.1396637 C220.1088797 94.87457031 220.10705688 95.60947693 220.10517883 96.36665344 C219.99015942 124.07396718 215.26714359 146.31125208 199.79820251 169.5146637 C200.1522791 174.4065595 201.39715499 178.71885769 203.02085876 183.3271637 C203.47871305 184.64849645 203.9359622 185.970039 204.39268494 187.29176331 C204.75237869 188.32404556 204.75237869 188.32404556 205.11933899 189.37718201 C209.36453489 201.61682989 213.20959751 213.91776791 216.48570251 226.4521637 C216.82416199 227.71737854 217.16262146 228.98259338 217.51133728 230.28614807 C221.87523101 247.44179903 221.87523101 247.44179903 217.54820251 254.9521637 C214.7883376 258.81909307 212.34359508 260.99953284 207.79820251 262.5146637 C204.89357749 262.62164616 202.01259705 262.67193075 199.10752869 262.67579651 C198.21939987 262.68076141 197.33127106 262.68572632 196.41622925 262.69084167 C193.4745354 262.70546103 190.53289549 262.71226507 187.59117126 262.7177887 C185.54716999 262.72354051 183.50316873 262.72929824 181.45916748 262.73506165 C177.17105355 262.74557111 172.88295837 262.75141408 168.59483337 262.75489807 C163.10360885 262.76038148 157.61263244 262.78440655 152.12148571 262.81287003 C147.89811482 262.83150599 143.67480357 262.83670253 139.45139503 262.83823395 C137.42722022 262.84125903 135.40304642 262.84928267 133.37891197 262.86241913 C130.54477005 262.87949886 127.71123264 262.87759457 124.87705994 262.87110901 C124.04307678 262.88032379 123.20909363 262.88953857 122.34983826 262.89903259 C116.7664466 262.85906579 112.47647562 261.95241228 108.18882751 258.04981995 C106.05899968 255.30000798 104.28747901 252.64891378 102.79820251 249.5146637 C102.45208923 250.31130432 102.45208923 250.31130432 102.09898376 251.1240387 C99.64007942 256.45004495 97.19174318 259.81789336 91.79820251 262.5146637 C88.77880174 262.62388101 85.78211651 262.67200499 82.7620697 262.67579651 C81.82531906 262.68076141 80.88856842 262.68572632 79.9234314 262.69084167 C76.81397271 262.70548653 73.70456507 262.7122698 70.59507751 262.7177887 C68.43754576 262.72353903 66.28001402 262.72929678 64.1224823 262.73506165 C59.59299989 262.74557879 55.06353527 262.75141652 50.53404236 262.75489807 C44.73227696 262.76037881 38.93074673 262.78439497 33.12905502 262.81287003 C28.66977759 262.8315035 24.21055666 262.83670243 19.75124359 262.83823395 C17.61263496 262.8412603 15.47402731 262.84928823 13.33545685 262.86241913 C10.34076123 262.87949125 7.34663811 262.87759618 4.35191345 262.87110901 C3.46960556 262.88032379 2.58729767 262.88953857 1.67825317 262.89903259 C-3.36749925 262.86482746 -6.83097835 262.31579312 -11.20179749 259.5146637 C-14.90518473 255.50266085 -17.44817757 251.87050486 -17.45906639 246.32788467 C-17.46873973 245.07976655 -17.46873973 245.07976655 -17.47860849 243.80643392 C-17.47551129 242.89749655 -17.47241408 241.98855917 -17.46922302 241.05207825 C-17.47375414 240.08241961 -17.47828525 239.11276098 -17.48295367 238.11371875 C-17.49564131 234.85571743 -17.49397447 231.59788234 -17.49232483 228.33985901 C-17.49830741 226.00744918 -17.50511232 223.67504133 -17.51268005 221.34263611 C-17.53037621 214.99955235 -17.535037 208.65652253 -17.53631163 202.31341648 C-17.53820909 197.02021486 -17.545565 191.72702585 -17.55265582 186.43382907 C-17.56830456 174.65882263 -17.57399251 162.88383959 -17.57264511 151.10882369 C-17.5725652 150.40228214 -17.57248529 149.69574059 -17.57240295 148.9677887 C-17.57232119 148.26038287 -17.57223943 147.55297704 -17.57215519 146.82413468 C-17.57134263 135.36458556 -17.5904722 123.905168 -17.61867969 112.44565693 C-17.64742336 100.67527312 -17.66121911 88.90495343 -17.65949214 77.13453364 C-17.65898203 70.52792016 -17.66469178 63.92145546 -17.68584824 57.31487274 C-17.70520673 51.09978661 -17.70537114 44.88499154 -17.69081497 38.66989517 C-17.68872273 36.38986664 -17.69345239 34.10982001 -17.70553589 31.82982254 C-17.72097523 28.71460068 -17.71168809 25.60038399 -17.6962738 22.48518372 C-17.70656093 21.58516923 -17.71684806 20.68515475 -17.72744691 19.7578671 C-17.66358916 13.90842515 -16.71362055 9.29954051 -13.20179749 4.5146637 C-8.86949383 0.69615186 -5.69783657 0.01276054 0 0 Z M-2.20179749 14.5146637 C-3.2026311 61.87147943 -3.36013463 109.21618 -3.3303659 156.58219004 C-3.32596565 164.42397157 -3.32917236 172.26573739 -3.33399498 180.10751796 C-3.33851918 187.775829 -3.3391836 195.44413318 -3.33655632 203.11244512 C-3.33500462 207.6466149 -3.33477164 212.18077386 -3.3380928 216.71494293 C-3.34096514 220.92143733 -3.33900796 225.12790145 -3.33319855 229.33439255 C-3.33187257 230.8752093 -3.33226233 232.41602858 -3.33446121 233.95684433 C-3.33717603 236.05043222 -3.33378899 238.14392152 -3.32878113 240.23750305 C-3.3284041 241.40877117 -3.32802708 242.58003929 -3.32763863 243.78680038 C-3.38816262 246.47986745 -3.38816262 246.47986745 -2.20179749 248.5146637 C27.49820251 248.5146637 57.19820251 248.5146637 87.79820251 248.5146637 C89.04160228 246.02786418 88.95647738 244.29669281 89.00352478 241.51417542 C89.02347 240.47324738 89.04341522 239.43231934 89.06396484 238.35984802 C89.08067734 237.23273407 89.09738983 236.10562012 89.11460876 234.9443512 C89.14578041 233.21730453 89.14578041 233.21730453 89.17758179 231.45536804 C89.24311917 227.76686229 89.30198179 224.07828366 89.36070251 220.3896637 C89.40388374 217.89356232 89.4474979 215.39746839 89.49156189 212.90138245 C89.59880483 206.77255389 89.7005634 200.64365237 89.79820251 194.5146637 C93.26320251 193.5246637 93.26320251 193.5246637 96.79820251 192.5146637 C97.05601501 193.18368713 97.31382751 193.85271057 97.57945251 194.54200745 C98.74332374 197.38080873 100.01827554 200.15225763 101.31138611 202.93385315 C106.96191985 215.2064993 111.36240689 227.90789277 115.78013611 240.66236877 C116.72275891 243.30329497 117.75678247 245.91111358 118.79820251 248.5146637 C147.17820251 248.5146637 175.55820251 248.5146637 204.79820251 248.5146637 C205.81407665 243.43529303 205.30392252 240.46789497 203.95445251 235.6709137 C203.74999008 234.91302048 203.54552765 234.15512726 203.33486938 233.37426758 C202.66786013 230.9176349 201.98401719 228.4661073 201.29820251 226.0146637 C200.8335873 224.32794524 200.36915098 222.6411775 199.90489197 220.95436096 C195.92892001 206.60791746 191.83278062 192.30204351 185.86070251 178.6396637 C184.03590341 174.31873472 182.74729484 171.24374822 183.79820251 166.5146637 C185.30451015 164.01473747 186.98068634 161.70712457 188.72398376 159.3662262 C195.99964197 149.36390889 200.40420805 139.68282854 202.79820251 127.5146637 C202.97407898 126.7407428 203.14995544 125.9668219 203.3311615 125.16944885 C205.27183887 115.56529627 205.13534763 105.90827465 205.11387634 96.15235901 C205.11071653 93.15296544 205.13424208 90.154561 205.15953064 87.1552887 C205.20735437 73.26526324 204.41575898 60.43250668 198.11070251 47.7646637 C197.76257507 47.04931458 197.41444763 46.33396545 197.05577087 45.59693909 C194.02694321 39.58083052 190.46971538 34.39161594 185.79820251 29.5146637 C185.13433533 28.81083557 184.47046814 28.10700745 183.78648376 27.3818512 C174.24414477 18.10408722 163.74286971 13.62320202 150.58520508 13.64372253 C149.07757991 13.66848052 147.56996586 13.69392393 146.06236267 13.71998596 C144.43470343 13.72196575 142.80703797 13.72084189 141.17938232 13.71688843 C136.80582101 13.71489843 132.43363233 13.7557479 128.06038713 13.80490613 C123.4734211 13.8489778 118.88641574 13.85280166 114.29927063 13.86108398 C105.63314961 13.88274983 96.96765448 13.94006828 88.30180776 14.01053041 C78.42751552 14.08905757 68.55319173 14.12733136 58.67866445 14.16239846 C38.38482922 14.23536009 18.09155546 14.35830545 -2.20179749 14.5146637 Z " fill="#010101" transform="translate(875.2017974853516,863.4853363037109)"/>
<path d="M0 0 C0.65819524 -0.0055344 1.31639048 -0.01106879 1.99453104 -0.0167709 C4.18704253 -0.03031959 6.37840405 -0.01544088 8.57089233 -0.00050354 C10.14835085 -0.00428908 11.72580603 -0.00979105 13.30325317 -0.01687622 C17.58056836 -0.0308245 21.85748094 -0.01966249 26.13477373 -0.00316501 C30.62148871 0.01071282 35.10818095 0.00422175 39.59490967 0.0007019 C47.13547219 -0.00199973 54.67587552 0.01146563 62.21640015 0.03465271 C70.91074461 0.06120428 79.60482197 0.06302779 88.29919302 0.05126435 C96.68306148 0.04044568 105.06683415 0.04670934 113.45069504 0.06081963 C117.00780907 0.06654992 120.56485233 0.06652002 124.12196732 0.06175423 C128.3229293 0.05694578 132.52360293 0.06724443 136.72451019 0.08870888 C138.25784457 0.09422683 139.79120695 0.09478857 141.324543 0.08975601 C153.48718549 0.05487441 164.45079398 1.50576093 175.33407593 7.18870544 C176.01075317 7.53538269 176.68743042 7.88205994 177.38461304 8.23924255 C183.23871778 11.33420336 188.3225187 15.02337512 193.20907593 19.50120544 C193.84071655 20.06452576 194.47235718 20.62784607 195.12313843 21.20823669 C210.1044047 35.2985466 220.26899674 58.86580912 221.30764771 79.45521545 C221.35725061 81.71720495 221.37386022 83.97695419 221.37704468 86.23948669 C221.38037308 87.07852036 221.38370148 87.91755402 221.38713074 88.78201294 C221.39217985 90.55795243 221.39453969 92.33390136 221.39437866 94.10984802 C221.39653811 96.76716295 221.41463965 99.42404346 221.4336853 102.08128357 C221.4844917 116.69340923 221.05780502 131.22885667 216.08407593 145.12620544 C215.77695679 146.00663513 215.46983765 146.88706482 215.15341187 147.79417419 C205.18862286 175.42610172 185.30265497 194.2674709 159.02157593 206.93870544 C148.70043206 211.39010788 137.36732614 213.46644393 126.33407593 215.31370544 C125.61067017 215.43777771 124.8872644 215.56184998 124.14193726 215.68968201 C117.50646082 216.69963891 110.90779083 216.61205122 104.20907593 216.50120544 C104.21076782 217.97544983 104.21076782 217.97544983 104.2124939 219.47947693 C104.2087921 223.16461832 104.16572311 226.84847372 104.11141968 230.53318787 C104.09337464 232.12066807 104.08567012 233.70830383 104.08895874 235.29588318 C104.10886611 251.11726797 104.10886611 251.11726797 99.07675171 257.85691833 C93.7123999 262.57965159 88.62609408 262.94064054 81.82650757 262.90525818 C80.43754524 262.91555305 80.43754524 262.91555305 79.02052307 262.92605591 C75.9699353 262.94430645 72.91986266 262.94048884 69.86923218 262.93479919 C67.74223158 262.93936182 65.61523246 262.94466763 63.48823547 262.95068359 C59.03387456 262.95961128 54.57969297 262.95719538 50.12533569 262.94725037 C44.42454342 262.93576114 38.72437061 262.95597359 33.02365971 262.9851675 C28.63208603 263.00353657 24.24066061 263.0032356 19.84905815 262.99752998 C17.74756438 262.99737686 15.6460605 263.00341402 13.54460335 263.01582146 C10.60302281 263.03074273 7.66258426 263.02004568 4.72103882 263.00291443 C3.85796112 263.0125824 2.99488342 263.02225037 2.10565186 263.0322113 C-4.34862105 262.95372561 -8.88332568 261.47399663 -13.53311157 256.71995544 C-13.9069397 256.15276794 -14.28076782 255.58558044 -14.66592407 255.00120544 C-15.05522095 254.43401794 -15.44451782 253.86683044 -15.84561157 253.28245544 C-17.56354267 250.04536214 -17.9155819 247.01784845 -17.80967712 243.39222717 C-17.77864238 242.15833189 -17.77864238 242.15833189 -17.74698067 240.89950943 C-17.71934576 239.99285915 -17.69171085 239.08620888 -17.66323853 238.15208435 C-17.61272189 236.10322118 -17.56289331 234.05434098 -17.5136261 232.00544739 C-17.48542974 230.89187237 -17.45723339 229.77829735 -17.4281826 228.63097763 C-16.78270645 202.29602326 -16.73788246 175.97279541 -16.82446432 149.63151836 C-16.83706117 145.64761611 -16.84731147 141.66370936 -16.85748112 137.67980027 C-16.90219905 120.18953854 -16.95343258 102.69933312 -17.03775024 85.20921326 C-17.08220132 75.96720569 -17.11246438 66.72526759 -17.12660772 57.48316252 C-17.13620298 51.69414684 -17.16294155 45.90555717 -17.20270002 40.11667418 C-17.22295558 36.54911689 -17.22644371 32.9816919 -17.22506142 29.41408348 C-17.22775666 27.76527099 -17.23731466 26.11645308 -17.25428772 24.46772575 C-17.27646147 22.21718628 -17.27387429 19.96796329 -17.26521301 17.71736145 C-17.270199 16.46086981 -17.27518499 15.20437817 -17.28032207 13.90981102 C-16.49990876 8.47431441 -14.1281004 5.61033009 -9.96535683 2.15753078 C-6.3321858 0.26184935 -4.07902066 0.00072744 0 0 Z M-2.79092407 14.50120544 C-2.8365131 44.02258208 -2.87192472 73.54395706 -2.89305473 103.06536149 C-2.89555626 106.54771969 -2.89814489 110.03007782 -2.90078735 113.51243591 C-2.90131197 114.20573392 -2.9018366 114.89903193 -2.90237711 115.61333896 C-2.91108847 126.85082164 -2.92686244 138.08828394 -2.94522966 149.32575451 C-2.96390843 160.84963047 -2.97488672 172.37349206 -2.97910106 183.89738286 C-2.98171512 190.37303934 -2.98788582 196.84864954 -3.00238419 203.32429123 C-3.01590609 209.41282989 -3.02015769 215.50130295 -3.01713943 221.58985519 C-3.01769202 223.83047339 -3.02170141 226.07109366 -3.02933502 228.31169891 C-3.03921197 231.35890769 -3.03691964 234.40586524 -3.03143311 237.45307922 C-3.03725879 238.34995355 -3.04308447 239.24682787 -3.04908669 240.1708802 C-3.24885305 244.8169087 -3.24885305 244.8169087 -0.79092407 248.50120544 C1.99932137 248.70508248 4.69072459 248.78437583 7.48251343 248.77586365 C8.3379071 248.78097458 9.19330078 248.78608551 10.07461548 248.79135132 C12.91117283 248.80528807 15.74748835 248.80428766 18.58407593 248.80198669 C20.54940889 248.80587107 22.514741 248.8102052 24.48007202 248.81497192 C28.60265828 248.8224427 32.72515891 248.82213643 36.8477478 248.81687927 C42.14100488 248.81108017 47.43391255 248.82802216 52.72711182 248.85122395 C56.78648949 248.8659265 60.84578231 248.8668378 64.90518188 248.86371422 C66.85729668 248.86422908 68.80941602 248.86949743 70.76150513 248.87952614 C73.48645007 248.89180757 76.21070524 248.88514942 78.93563843 248.8735199 C79.74817078 248.88116364 80.56070313 248.88880737 81.39785767 248.89668274 C83.86721706 248.90876636 83.86721706 248.90876636 87.20907593 248.50120544 C89.67414184 244.80360657 89.47518533 242.86714885 89.51766968 238.45433044 C89.54284394 237.03765992 89.56824174 235.62099335 89.59384155 234.20433044 C89.62248135 231.98168599 89.64650883 229.75911074 89.66537476 227.53636169 C89.68719932 225.38364466 89.72666172 223.23175558 89.76766968 221.07933044 C89.78785156 219.15202087 89.78785156 219.15202087 89.80844116 217.18577576 C90.35411342 212.1673201 91.48388896 207.95822864 95.47079468 204.59104919 C98.80138112 203.26546629 101.43537369 203.12863136 105.02157593 203.06370544 C131.36210179 202.05048765 158.38351975 195.79916433 178.20907593 177.50120544 C179.13333374 176.65686951 180.05759155 175.81253357 181.00985718 174.94261169 C191.60282013 164.83701105 197.30889192 154.03646982 202.20907593 140.50120544 C202.52876343 139.68393982 202.84845093 138.86667419 203.17782593 138.02464294 C212.56617278 111.45562134 209.96237536 75.63547754 198.39657593 50.31370544 C195.16057821 43.68538902 191.32945487 37.85194908 186.20907593 32.50120544 C185.69216187 31.95593201 185.1752478 31.41065857 184.64266968 30.84886169 C173.28091655 20.11357115 158.05247445 14.36816707 142.5967865 14.38095093 C141.30821243 14.37957626 140.01963837 14.3782016 138.6920166 14.37678528 C137.28176856 14.38032351 135.87152076 14.38395831 134.46127319 14.38768005 C132.9627228 14.3879624 131.46417226 14.38780326 129.96562195 14.38723755 C125.91243451 14.38695144 121.85927685 14.39281809 117.80609632 14.39981151 C113.56468689 14.40607602 109.32327674 14.40665129 105.0818634 14.40783691 C97.05683177 14.4109411 89.03181381 14.41914218 81.00678819 14.4291864 C71.86774479 14.44037589 62.72870073 14.44586513 53.58965218 14.45088184 C34.79611902 14.46132557 16.00259857 14.47890733 -2.79092407 14.50120544 Z " fill="#010101" transform="translate(622.7909240722656,862.4987945556641)"/>
<path d="M0 0 C2.0305702 -0.00457239 4.06113885 -0.00988107 6.09170532 -0.0158844 C10.32943035 -0.02477315 14.5669665 -0.02244115 18.8046875 -0.01245117 C24.19622802 -0.00097051 29.58711265 -0.02118133 34.97856712 -0.05036831 C39.16714519 -0.06884299 43.35556936 -0.06841548 47.54417801 -0.06273079 C49.53020777 -0.06257893 51.51624888 -0.06850924 53.50223923 -0.08102226 C76.47905369 -0.20542547 98.66652181 5.11835256 115.9140625 21.43359375 C115.9140625 22.09359375 115.9140625 22.75359375 115.9140625 23.43359375 C116.5740625 23.43359375 117.2340625 23.43359375 117.9140625 23.43359375 C127.32293449 33.96173676 134.65715798 45.97820271 139.2890625 59.30859375 C139.52786133 59.97850342 139.76666016 60.64841309 140.01269531 61.33862305 C144.29966524 74.59814037 144.21906156 88.85806861 144.1796875 102.64453125 C144.18104065 104.34974218 144.18298653 106.05495272 144.18548584 107.76016235 C144.1884082 111.30824511 144.18423485 114.8562261 144.17480469 118.40429688 C144.16342957 122.89736763 144.169976 127.39019878 144.18194962 131.88326073 C144.18926215 135.39767175 144.18683753 138.9120283 144.18169403 142.42644119 C144.1803824 144.08063411 144.18191526 145.73483236 144.18665314 147.38901901 C144.20592283 156.00494216 143.95372419 164.50906608 143.03027344 173.08056641 C142.91567968 174.15942391 142.91567968 174.15942391 142.7987709 175.26007652 C139.94913641 199.20041551 126.08883561 224.1416824 107.46875 239.3203125 C86.85100388 255.3591107 65.09070258 262.78897525 38.9453125 262.69921875 C37.53389418 262.70057099 36.12247632 262.70251613 34.71105957 262.70501709 C31.77298487 262.70794213 28.83503293 262.70375618 25.89697266 262.69433594 C22.16546093 262.68294294 18.43423711 262.68951663 14.7027359 262.70148087 C11.79418846 262.70877095 8.88570723 262.70637908 5.97715759 262.70122528 C4.60269637 262.69990845 3.22822878 262.70146592 1.85377502 262.70618439 C-21.78792965 262.76957113 -42.81152682 255.71832579 -61.0859375 240.43359375 C-62.0759375 239.71171875 -63.0659375 238.98984375 -64.0859375 238.24609375 C-77.69742776 226.58445885 -88.07025165 204.86486321 -91.0859375 187.43359375 C-91.17604806 185.7857792 -91.2205354 184.13502268 -91.22637939 182.48475647 C-91.23208954 181.51365936 -91.23779968 180.54256226 -91.24368286 179.54203796 C-91.24480072 178.48797256 -91.24591858 177.43390717 -91.24707031 176.34790039 C-91.25203522 175.2284906 -91.25700012 174.10908081 -91.26211548 172.95574951 C-91.27672019 169.2517434 -91.28353807 165.54778018 -91.2890625 161.84375 C-91.2948175 159.26126607 -91.30057519 156.67878214 -91.30633545 154.09629822 C-91.31549996 149.36906398 -91.32180071 144.64184679 -91.3248322 139.9146052 C-91.32929841 132.99043699 -91.34678142 126.06646761 -91.3758328 119.14235979 C-91.40021337 113.11905278 -91.40778437 107.09583842 -91.40950775 101.07247734 C-91.41251909 98.52461099 -91.42049578 95.97674516 -91.43369293 93.42891121 C-91.56291818 66.55137627 -88.0016405 44.25933917 -68.4609375 24.24609375 C-58.58325268 14.4958972 -47.49867679 7.39809274 -34.0859375 3.43359375 C-32.87018288 3.06455681 -32.87018288 3.06455681 -31.62986755 2.68806458 C-21.11901989 -0.1396249 -10.81516247 -0.02149841 0 0 Z M-40.0859375 21.43359375 C-40.86066406 21.830625 -41.63539063 22.22765625 -42.43359375 22.63671875 C-59.16276883 31.8629516 -69.57823826 45.98715068 -75.2109375 63.9609375 C-76.97591228 70.96568116 -77.24285958 77.72675832 -77.26293945 84.90429688 C-77.26951065 85.93461029 -77.27608185 86.96492371 -77.28285217 88.02645874 C-77.30249557 91.42258796 -77.31422947 94.81867307 -77.32421875 98.21484375 C-77.32829428 99.38121872 -77.3323698 100.54759369 -77.33656883 101.74931335 C-77.35739412 107.92629822 -77.37170964 114.10326112 -77.38110352 120.28027344 C-77.39214428 126.62699265 -77.42652797 132.97335902 -77.46627522 139.31995392 C-77.4925514 144.22909145 -77.50080523 149.13814638 -77.50438499 154.04734802 C-77.5092246 156.38506954 -77.52076254 158.72278802 -77.53942299 161.06044006 C-77.65911972 177.05244988 -77.0020417 191.3511565 -69.2734375 205.74609375 C-68.92579346 206.41141113 -68.57814941 207.07672852 -68.2199707 207.76220703 C-60.81125988 221.66809899 -51.61116995 231.38039796 -37.7109375 238.80859375 C-36.9571582 239.21335937 -36.20337891 239.618125 -35.42675781 240.03515625 C-23.48293854 246.1160146 -12.12392021 248.04876464 1.15234375 247.96484375 C2.6872736 247.96754893 4.22220176 247.97143978 5.75712585 247.97644043 C8.95503248 247.9822928 12.15248819 247.97391587 15.3503418 247.95507812 C19.40118475 247.93234908 23.45096352 247.94539984 27.50176716 247.96936798 C30.66702431 247.98399289 33.83203948 247.97914384 36.99730492 247.96885681 C38.48847779 247.96623222 39.97967436 247.96930442 41.47081947 247.97877502 C54.87363477 248.04522813 68.1892213 246.19255546 80.1640625 239.74609375 C80.81971191 239.40433105 81.47536133 239.06256836 82.15087891 238.71044922 C105.83373716 225.98386822 118.56115487 206.30717075 127.1171875 181.55078125 C128.89281912 174.60492814 129.0618423 167.52113066 129.04345703 160.38476562 C129.04520935 159.52984024 129.04696167 158.67491486 129.04876709 157.79408264 C129.05313152 154.99681506 129.0502668 152.19961186 129.046875 149.40234375 C129.04754959 147.44136544 129.04852092 145.48038721 129.04977417 143.51940918 C129.05124382 139.42097167 129.04912019 135.32255605 129.04443359 131.22412109 C129.03873677 125.98904427 129.0420197 120.75401873 129.04800606 115.51894379 C129.05163147 111.47303892 129.05046399 107.42714608 129.04787827 103.38124084 C129.04721447 101.45166518 129.04801813 99.5220884 129.05035782 97.59251404 C129.05291697 94.88912086 129.0489981 92.18580904 129.04345703 89.48242188 C129.04649338 88.30384361 129.04649338 88.30384361 129.04959106 87.10145569 C128.97205593 66.52792399 120.64868439 47.81907558 106.51953125 32.90625 C89.82007514 16.64689668 70.14404562 14.11289882 47.859375 14.1328125 C46.02676295 14.12891512 44.19415179 14.12457834 42.36154175 14.11982727 C38.53738464 14.11240639 34.71331993 14.11262621 30.88916016 14.11791992 C26.02558393 14.12371014 21.16238908 14.10677403 16.29887581 14.08357525 C12.51868537 14.06873529 8.73858463 14.06798004 4.95837021 14.07108498 C3.16689168 14.07057695 1.37540743 14.0654384 -0.41604233 14.05527306 C-14.30294092 13.9861244 -27.56380985 14.72449049 -40.0859375 21.43359375 Z " fill="#020202" transform="translate(445.0859375,862.56640625)"/>
<path d="M0 0 C3.50774384 1.86125183 4.61501421 3.05529829 6.10293579 6.70645142 C7.08092557 10.29711618 7.26735991 13.35259371 7.29052734 17.07177734 C7.30060318 18.09257133 7.30060318 18.09257133 7.31088257 19.13398743 C7.32977139 21.36804649 7.33378198 23.60180372 7.3359375 25.8359375 C7.34237144 27.40003581 7.34910024 28.96413293 7.35610962 30.52822876 C7.36805933 33.80139962 7.37179279 37.07446512 7.37060547 40.34765625 C7.37040233 44.5260749 7.39770875 48.70381303 7.43214989 52.88207054 C7.45447003 56.11130836 7.45844147 59.34038367 7.45738602 62.5696907 C7.45973411 64.10936453 7.46851279 65.64904338 7.48405075 67.18864059 C7.63571839 83.76763817 7.63571839 83.76763817 1.52279663 90.66732788 C-1.31638166 93.15202851 -4.73606423 92.58191284 -8.33203125 92.47265625 C-11 92 -11 92 -14.0625 89.5 C-19.22804387 81.43680888 -18.32676484 71.55271385 -18.3359375 62.37109375 C-18.34237499 60.85229877 -18.34910404 59.33350499 -18.35610962 57.81471252 C-18.36803443 54.64345422 -18.3717951 51.4723045 -18.37060547 48.30102539 C-18.37040183 44.25035269 -18.39777154 40.20037797 -18.43214989 36.14987087 C-18.45444594 33.01761205 -18.4584423 29.88552103 -18.45738602 26.75319099 C-18.4597353 25.26013838 -18.46852074 23.76708067 -18.48405075 22.27410698 C-18.62166435 7.68743833 -18.62166435 7.68743833 -14 2 C-9.53653698 -0.97564201 -5.23286419 -0.61292699 0 0 Z " fill="#010101" transform="translate(474,947)"/>
<path d="M0 0 C3.52418195 0.74127178 5.09803724 2.6479729 7.19140625 5.4609375 C8.1948558 8.47128615 8.32954021 10.51548973 8.35253906 13.66333008 C8.36214661 14.72485794 8.37175415 15.7863858 8.38165283 16.88008118 C8.38590271 18.02695908 8.39015259 19.17383698 8.39453125 20.35546875 C8.40023132 21.53558029 8.4059314 22.71569183 8.4118042 23.93156433 C8.42125661 26.43068545 8.42778913 28.92981905 8.43164062 31.42895508 C8.44134108 35.24778051 8.47236101 39.06606665 8.50390625 42.88476562 C8.51043685 45.3124968 8.5156871 47.74023183 8.51953125 50.16796875 C8.53187805 51.30877396 8.54422485 52.44957916 8.5569458 53.62495422 C8.53817457 60.32373128 8.11717867 65.08504625 3.56640625 70.3359375 C-0.19369591 72.11703852 -3.74722159 72.37311734 -7.80859375 71.4609375 C-10.97118832 69.09457262 -12.56330281 66.19681031 -13.80859375 62.4609375 C-13.91064047 60.82619432 -13.95699258 59.18768034 -13.96972656 57.54980469 C-13.97933411 56.55156677 -13.98894165 55.55332886 -13.99884033 54.52484131 C-14.00521515 52.90766205 -14.00521515 52.90766205 -14.01171875 51.2578125 C-14.01741882 50.14666077 -14.0231189 49.03550903 -14.0289917 47.89068604 C-14.0384436 45.536997 -14.04497643 43.18329471 -14.04882812 40.82958984 C-14.05851796 37.23902083 -14.08953383 33.64902802 -14.12109375 30.05859375 C-14.1276255 27.77083673 -14.1328753 25.48307562 -14.13671875 23.1953125 C-14.14906555 22.12528992 -14.16141235 21.05526733 -14.1741333 19.95281982 C-14.15279318 12.76492191 -13.21663113 8.07299357 -9.18359375 2.0234375 C-6.04980441 -0.03826601 -3.70259024 -0.1585953 0 0 Z " fill="#020202" transform="translate(727.80859375,930.5390625)"/>
<path d="M0 0 C3.70549744 0.09415057 4.11437103 0.43323007 7.0625 3.125 C10.60863596 8.75709829 11.49695427 13.70381984 11.48828125 20.27734375 C11.49256638 21.00691788 11.4968515 21.736492 11.50126648 22.48817444 C11.50698178 24.02359993 11.5075308 25.55905248 11.50317383 27.09448242 C11.50001369 29.42739597 11.52350681 31.75903969 11.54882812 34.09179688 C11.55110161 35.59114425 11.55180439 37.090495 11.55078125 38.58984375 C11.559991 39.27860092 11.56920074 39.96735809 11.57868958 40.67698669 C11.52206141 46.68465384 9.91125939 51.01012532 6.5 55.9375 C3.0217623 58.28766061 0.32808722 57.77603915 -3.8125 57.5 C-5.65952276 54.34411084 -6.06479145 52.03478173 -6.07128906 48.39599609 C-6.08074554 46.87454483 -6.08074554 46.87454483 -6.09039307 45.32235718 C-6.0863446 44.23371368 -6.08229614 43.14507019 -6.078125 42.0234375 C-6.08003845 40.90184235 -6.0819519 39.78024719 -6.08392334 38.62466431 C-6.08528356 36.25595882 -6.08159849 33.88724583 -6.07324219 31.51855469 C-6.06252062 27.88199247 -6.07315353 24.24592204 -6.0859375 20.609375 C-6.08461627 18.30989474 -6.08205463 16.01041478 -6.078125 13.7109375 C-6.08217346 12.61824554 -6.08622192 11.52555359 -6.09039307 10.39974976 C-6.08408875 9.39175323 -6.07778442 8.38375671 -6.07128906 7.34521484 C-6.06969788 6.45571136 -6.06810669 5.56620789 -6.06646729 4.64974976 C-5.58668698 0.58856689 -3.84563827 0.504346 0 0 Z " fill="#010101" transform="translate(968.8125,934.5)"/>
<path d="M0 0 C2.64 0 5.28 0 8 0 C10.08834339 2.25629817 11.27307993 3.86976913 12.6875 6.5 C13.03876953 7.10070313 13.39003906 7.70140625 13.75195312 8.3203125 C14.85186411 10.2035845 15.92564321 12.10203396 17 14 C18.65 16.64 20.3 19.28 22 22 C22.33 14.74 22.66 7.48 23 0 C25.31 0 27.62 0 30 0 C30 11.88 30 23.76 30 36 C22 36 22 36 19.80664062 33.88867188 C19.26201172 32.92509766 18.71738281 31.96152344 18.15625 30.96875 C17.55039062 29.93105469 16.94453125 28.89335938 16.3203125 27.82421875 C15.71960938 26.72722656 15.11890625 25.63023438 14.5 24.5 C13.86835937 23.40300781 13.23671875 22.30601563 12.5859375 21.17578125 C11.03057494 18.46567982 9.51172045 15.7346853 8 13 C7.67 20.59 7.34 28.18 7 36 C4.69 36 2.38 36 0 36 C0 24.12 0 12.24 0 0 Z " fill="#F6F6F6" transform="translate(965,1233)"/>
<path d="M0 0 C3.46679688 0.04882812 3.46679688 0.04882812 6.93359375 0.09765625 C9.90487308 7.3369004 12.61081721 14.6455703 15.18359375 22.03515625 C15.54710937 23.06189453 15.910625 24.08863281 16.28515625 25.14648438 C16.62804688 26.12939453 16.9709375 27.11230469 17.32421875 28.125 C17.63391602 29.00921631 17.94361328 29.89343262 18.26269531 30.80444336 C18.93359375 33.09765625 18.93359375 33.09765625 18.93359375 36.09765625 C16.62359375 36.09765625 14.31359375 36.09765625 11.93359375 36.09765625 C10.67694397 33.19165364 9.93359375 31.30161041 9.93359375 28.09765625 C4.98359375 28.09765625 0.03359375 28.09765625 -5.06640625 28.09765625 C-5.39640625 30.07765625 -5.72640625 32.05765625 -6.06640625 34.09765625 C-6.39640625 34.75765625 -6.72640625 35.41765625 -7.06640625 36.09765625 C-9.37640625 36.09765625 -11.68640625 36.09765625 -14.06640625 36.09765625 C-13.34335398 31.94992978 -12.1448423 28.07469626 -10.81640625 24.08203125 C-10.59823242 23.42559631 -10.38005859 22.76916138 -10.15527344 22.09283447 C-9.69613588 20.71406705 -9.23549754 19.33579858 -8.7734375 17.95800781 C-8.06450093 15.84196923 -7.36203763 13.72385655 -6.66015625 11.60546875 C-6.21262463 10.26419438 -5.76472113 8.92304402 -5.31640625 7.58203125 C-4.9090625 6.36225586 -4.50171875 5.14248047 -4.08203125 3.88574219 C-2.7132689 0.12822632 -2.7132689 0.12822632 0 0 Z " fill="#F4F4F4" transform="translate(1093.06640625,1232.90234375)"/>
<path d="M0 0 C3.46679688 0.04882812 3.46679688 0.04882812 6.93359375 0.09765625 C9.90487308 7.3369004 12.61081721 14.6455703 15.18359375 22.03515625 C15.54710937 23.06189453 15.910625 24.08863281 16.28515625 25.14648438 C16.62804687 26.12939453 16.9709375 27.11230469 17.32421875 28.125 C17.63391602 29.00921631 17.94361328 29.89343262 18.26269531 30.80444336 C18.93359375 33.09765625 18.93359375 33.09765625 18.93359375 36.09765625 C16.62359375 36.09765625 14.31359375 36.09765625 11.93359375 36.09765625 C10.67694397 33.19165364 9.93359375 31.30161041 9.93359375 28.09765625 C4.98359375 28.09765625 0.03359375 28.09765625 -5.06640625 28.09765625 C-5.39640625 30.07765625 -5.72640625 32.05765625 -6.06640625 34.09765625 C-6.39640625 34.75765625 -6.72640625 35.41765625 -7.06640625 36.09765625 C-9.37640625 36.09765625 -11.68640625 36.09765625 -14.06640625 36.09765625 C-13.34335398 31.94992978 -12.1448423 28.07469626 -10.81640625 24.08203125 C-10.59823242 23.42559631 -10.38005859 22.76916138 -10.15527344 22.09283447 C-9.69613588 20.71406705 -9.23549754 19.33579858 -8.7734375 17.95800781 C-8.06450093 15.84196923 -7.36203763 13.72385655 -6.66015625 11.60546875 C-6.21262463 10.26419438 -5.76472113 8.92304402 -5.31640625 7.58203125 C-4.9090625 6.36225586 -4.50171875 5.14248047 -4.08203125 3.88574219 C-2.7132689 0.12822632 -2.7132689 0.12822632 0 0 Z " fill="#F4F4F4" transform="translate(916.06640625,1232.90234375)"/>
<path d="M0 0 C1.62745563 0.70556359 3.21251571 1.50761689 4.78515625 2.328125 C4.27911633 4.49686752 3.78531812 6.32780127 2.78515625 8.328125 C2.12515625 7.998125 1.46515625 7.668125 0.78515625 7.328125 C-3.07545408 6.04125489 -6.15634658 6.19054882 -10.21484375 6.328125 C-10.54484375 7.978125 -10.87484375 9.628125 -11.21484375 11.328125 C-10.63476562 11.50988281 -10.0546875 11.69164062 -9.45703125 11.87890625 C1.84236078 15.51484923 1.84236078 15.51484923 5.66015625 19.078125 C7.28855982 22.33493214 7.16348711 24.73398187 6.78515625 28.328125 C5.31935676 32.12195897 4.11536042 33.14397267 0.53515625 35.140625 C-6.11376024 37.24611522 -10.42262519 36.61032358 -16.515625 33.59375 C-18.54794842 32.08001945 -19.25585986 30.64526373 -20.21484375 28.328125 C-18.83984375 26.328125 -18.83984375 26.328125 -17.21484375 24.328125 C-16.55484375 24.328125 -15.89484375 24.328125 -15.21484375 24.328125 C-14.44140625 25.318125 -14.44140625 25.318125 -13.65234375 26.328125 C-10.05398206 29.2806269 -6.69868883 28.67303616 -2.21484375 28.328125 C-2.21484375 26.348125 -2.21484375 24.368125 -2.21484375 22.328125 C-3.106875 22.09738281 -3.99890625 21.86664062 -4.91796875 21.62890625 C-6.0884375 21.30277344 -7.25890625 20.97664063 -8.46484375 20.640625 C-9.625 20.32738281 -10.78515625 20.01414062 -11.98046875 19.69140625 C-15.69294902 18.12660478 -17.10966038 16.72802163 -19.21484375 13.328125 C-19.97786951 10.54965879 -19.88777355 8.12728679 -19.21484375 5.328125 C-14.04104837 -1.07104297 -7.88896349 -2.39312473 0 0 Z " fill="#F3F3F3" transform="translate(868.21484375,1233.671875)"/>
<path d="M0 0 C9.24 0 18.48 0 28 0 C28 2.31 28 4.62 28 7 C24.7 7 21.4 7 18 7 C18 16.57 18 26.14 18 36 C15.36 36 12.72 36 10 36 C10 26.43 10 16.86 10 7 C6.7 7 3.4 7 0 7 C0 4.69 0 2.38 0 0 Z " fill="#E0E0E0" transform="translate(1025,1233)"/>
<path d="M0 0 C2.31 0 4.62 0 7 0 C7 11.55 7 23.1 7 35 C4.69 35 2.38 35 0 35 C0 23.45 0 11.9 0 0 Z " fill="#FBFBFB" transform="translate(1142,1234)"/>
<path d="M0 0 C2.18614424 2.18614424 2.68256535 3.53879949 3.625 6.4375 C3.88539062 7.21996094 4.14578125 8.00242187 4.4140625 8.80859375 C5 11 5 11 5 14 C2.03 14 -0.94 14 -4 14 C-3.71572583 12.41532272 -3.42225182 10.8322943 -3.125 9.25 C-2.96257812 8.36828125 -2.80015625 7.4865625 -2.6328125 6.578125 C-2.03203736 4.13052256 -1.22002883 2.19400143 0 0 Z " fill="#131313" transform="translate(1095,1241)"/>
<path d="M0 0 C2.18614424 2.18614424 2.68256535 3.53879949 3.625 6.4375 C3.88539063 7.21996094 4.14578125 8.00242187 4.4140625 8.80859375 C5 11 5 11 5 14 C2.03 14 -0.94 14 -4 14 C-3.71572583 12.41532272 -3.42225182 10.8322943 -3.125 9.25 C-2.96257813 8.36828125 -2.80015625 7.4865625 -2.6328125 6.578125 C-2.03203736 4.13052256 -1.22002883 2.19400143 0 0 Z " fill="#131313" transform="translate(918,1241)"/>
<path d="M0 0 C2.95183101 2.95183101 3.08663988 5.95511947 4 10 C3.34 9.67 2.68 9.34 2 9 C2 8.01 2 7.02 2 6 C-0.475 7.485 -0.475 7.485 -3 9 C-2.01 6.03 -1.02 3.06 0 0 Z " fill="#3B3B3B" transform="translate(1095,1241)"/>
<path d="M0 0 C2.95183101 2.95183101 3.08663988 5.95511947 4 10 C3.34 9.67 2.68 9.34 2 9 C2 8.01 2 7.02 2 6 C-0.475 7.485 -0.475 7.485 -3 9 C-2.01 6.03 -1.02 3.06 0 0 Z " fill="#3B3B3B" transform="translate(918,1241)"/>
</svg>
